<svg width="14" height="14" viewBox="0 0 14 14" fill="none" xmlns="http://www.w3.org/2000/svg">
<path d="M13.7116 3.53381C13.5502 2.93404 13.0773 2.46126 12.4777 2.29975C11.3821 2 6.99984 2 6.99984 2C6.99984 2 2.61774 2 1.5222 2.2884C0.934043 2.44973 0.449642 2.93415 0.288313 3.53381C0 4.62927 0 6.90115 0 6.90115C0 6.90115 0 9.18444 0.288313 10.2684C0.449795 10.8681 0.922514 11.3409 1.52228 11.5024C2.62927 11.8023 7.00001 11.8023 7.00001 11.8023C7.00001 11.8023 11.3821 11.8023 12.4777 11.5139C13.0774 11.3524 13.5502 10.8797 13.7117 10.28C13.9999 9.18442 13.9999 6.91265 13.9999 6.91265C13.9999 6.91265 14.0115 4.62925 13.7116 3.53381ZM5.60461 8.99995V4.80228L9.24868 6.9011L5.60461 8.99995Z" fill="white"/>
</svg>
