<svg width="34" height="34" viewBox="0 0 34 34" fill="none" xmlns="http://www.w3.org/2000/svg">
<rect width="34" height="34" rx="10" fill="#25C866"/>
<path d="M19.1309 7.5C20.0167 7.5 20.8941 7.60254 21.7627 7.80566C22.1836 7.89463 22.59 8.00473 22.9805 8.13672C23.9823 8.47541 24.3449 9.58502 23.9844 10.4775C23.5677 11.5087 22.3937 11.9167 21.4141 11.5762C21.2827 11.5305 21.1492 11.4862 21.0146 11.4443C20.4381 11.2649 19.8035 11.1729 19.1074 11.1729C18.4175 11.1729 17.8066 11.3068 17.2666 11.5654L17.2568 11.5703C16.7205 11.8129 16.2649 12.1761 15.8877 12.6689C15.5062 13.1674 15.2002 13.7781 14.9785 14.5107L14.9795 14.5117C14.7736 15.2444 14.667 16.0805 14.667 17.0244C14.667 18.285 14.842 19.3474 15.1758 20.2236L15.3125 20.5391C15.6489 21.2488 16.1029 21.7881 16.668 22.1758C17.3248 22.5996 18.1601 22.8271 19.2021 22.8271C19.9056 22.8271 20.5663 22.7496 21.1855 22.5967L21.1885 22.5957C21.2718 22.5756 21.3554 22.5553 21.4385 22.5342C22.5934 22.2408 23.8145 23.072 23.8145 24.3242C23.8144 25.04 23.3856 25.7336 22.6533 25.9668C22.2216 26.1043 21.7783 26.2129 21.3242 26.2949L21.3252 26.2959C20.5795 26.4334 19.7365 26.5 18.7998 26.5C16.9815 26.5 15.4249 26.1173 14.1602 25.3193L14.1533 25.3154C12.9149 24.5058 11.9942 23.3785 11.3906 21.9521L11.3896 21.9502C10.7917 20.5197 10.5 18.8659 10.5 17C10.5 15.6323 10.6787 14.3707 11.043 13.2197L11.0449 13.2139C11.3785 12.2057 11.8481 11.3078 12.4561 10.5264L12.7256 10.1982C13.4701 9.32174 14.3845 8.65534 15.4619 8.20117C16.5428 7.7292 17.7693 7.50001 19.1309 7.5Z" fill="white" stroke="white"/>
</svg>
