<svg width="800" height="180" viewBox="0 0 800 180" fill="none" xmlns="http://www.w3.org/2000/svg">
<path d="M127.655 72.5664V180H70.9551V54.6602L127.655 72.5664ZM44.9805 85.7607C50.365 85.5473 53.5329 89.8446 53.5332 92.6719V123.144L35.1611 129.427V95.8135C35.1613 93.6143 37.6952 86.0497 44.9805 85.7607ZM91.8613 85.7598C86.4768 85.5462 83.3091 89.8436 83.3086 92.6709V123.143L101.681 129.426V95.8125C101.68 93.6129 99.1461 86.0488 91.8613 85.7598ZM68.7373 54.9756L8.86914 74.7666L0 67.8555L68.7373 45.5518V54.9756ZM95.9795 16.0215V41.4668L112.134 47.749V26.3877L136.208 41.4668V66.2832L70.9551 44.6084V0L95.9795 16.0215ZM40.2285 32.6689V43.6621L28.1924 47.7461V27.6436L40.2285 32.6689Z" fill="#18C55D"/>
<path d="M210.088 106.998H222.646C222.394 111.114 221.26 114.768 219.244 117.961C217.256 121.153 214.47 123.645 210.886 125.437C207.33 127.229 203.046 128.125 198.034 128.125C194.114 128.125 190.6 127.453 187.492 126.109C184.384 124.737 181.724 122.777 179.512 120.229C177.328 117.681 175.662 114.6 174.513 110.988C173.365 107.376 172.791 103.33 172.791 98.8503V94.6082C172.791 90.1281 173.379 86.0821 174.555 82.47C175.76 78.83 177.468 75.7359 179.68 73.1879C181.92 70.6399 184.594 68.6798 187.702 67.3078C190.81 65.9358 194.282 65.2498 198.118 65.2498C203.214 65.2498 207.512 66.1738 211.012 68.0218C214.54 69.8699 217.27 72.4179 219.202 75.6659C221.162 78.914 222.338 82.61 222.73 86.7541H210.13C209.99 84.2901 209.5 82.204 208.66 80.496C207.82 78.76 206.546 77.458 204.838 76.59C203.158 75.6939 200.918 75.2459 198.118 75.2459C196.018 75.2459 194.184 75.6379 192.616 76.422C191.048 77.206 189.732 78.396 188.668 79.992C187.604 81.588 186.806 83.6041 186.274 86.0401C185.77 88.4481 185.518 91.2762 185.518 94.5242V98.8503C185.518 102.014 185.756 104.8 186.232 107.208C186.708 109.588 187.436 111.604 188.416 113.256C189.424 114.88 190.712 116.113 192.28 116.953C193.876 117.765 195.794 118.171 198.034 118.171C200.666 118.171 202.836 117.751 204.544 116.911C206.252 116.071 207.554 114.824 208.45 113.172C209.374 111.52 209.92 109.462 210.088 106.998ZM230.92 66.1318H253.727C258.403 66.1318 262.421 66.8318 265.781 68.2318C269.169 69.6319 271.773 71.7039 273.593 74.4479C275.413 77.192 276.323 80.566 276.323 84.5701C276.323 87.8461 275.763 90.6602 274.643 93.0122C273.551 95.3362 271.997 97.2822 269.981 98.8503C267.993 100.39 265.655 101.622 262.967 102.546L258.977 104.646H239.152L239.068 94.8182H253.811C256.023 94.8182 257.857 94.4262 259.313 93.6422C260.769 92.8582 261.861 91.7662 262.589 90.3661C263.345 88.9661 263.723 87.3421 263.723 85.4941C263.723 83.5341 263.359 81.84 262.631 80.412C261.903 78.984 260.797 77.892 259.313 77.136C257.829 76.38 255.967 76.0019 253.727 76.0019H243.52V127.285H230.92V66.1318ZM265.109 127.285L251.165 100.026L264.479 99.9423L278.591 126.697V127.285H265.109ZM292.409 66.1318L305.177 94.0202L317.946 66.1318H331.68L311.561 105.024V127.285H298.793V105.024L278.633 66.1318H292.409ZM361.08 105.486H345.498V95.6582H361.08C363.488 95.6582 365.448 95.2662 366.96 94.4822C368.472 93.6702 369.578 92.5502 370.278 91.1222C370.978 89.6941 371.328 88.0841 371.328 86.2921C371.328 84.4721 370.978 82.778 370.278 81.21C369.578 79.642 368.472 78.382 366.96 77.43C365.448 76.478 363.488 76.0019 361.08 76.0019H349.866V127.285H337.266V66.1318H361.08C365.868 66.1318 369.97 66.9998 373.386 68.7358C376.83 70.4439 379.462 72.8099 381.282 75.8339C383.102 78.858 384.012 82.316 384.012 86.2081C384.012 90.1561 383.102 93.5722 381.282 96.4562C379.462 99.3403 376.83 101.566 373.386 103.134C369.97 104.702 365.868 105.486 361.08 105.486ZM420.049 66.1318V127.285H407.491V66.1318H420.049ZM438.865 66.1318V76.0019H388.969V66.1318H438.865ZM495.104 95.2802V98.1783C495.104 102.826 494.474 106.998 493.214 110.694C491.954 114.39 490.176 117.541 487.88 120.145C485.584 122.721 482.84 124.695 479.648 126.067C476.484 127.439 472.97 128.125 469.106 128.125C465.27 128.125 461.756 127.439 458.563 126.067C455.399 124.695 452.655 122.721 450.331 120.145C448.007 117.541 446.201 114.39 444.913 110.694C443.653 106.998 443.023 102.826 443.023 98.1783V95.2802C443.023 90.6042 443.653 86.4321 444.913 82.764C446.173 79.068 447.951 75.9179 450.247 73.3139C452.571 70.7099 455.315 68.7218 458.479 67.3498C461.672 65.9778 465.186 65.2918 469.022 65.2918C472.886 65.2918 476.4 65.9778 479.564 67.3498C482.756 68.7218 485.5 70.7099 487.796 73.3139C490.12 75.9179 491.912 79.068 493.172 82.764C494.46 86.4321 495.104 90.6042 495.104 95.2802ZM482.378 98.1783V95.1962C482.378 91.9482 482.084 89.0921 481.496 86.6281C480.908 84.1641 480.04 82.092 478.892 80.412C477.744 78.732 476.344 77.472 474.692 76.632C473.04 75.7639 471.15 75.3299 469.022 75.3299C466.894 75.3299 465.004 75.7639 463.352 76.632C461.728 77.472 460.342 78.732 459.194 80.412C458.073 82.092 457.219 84.1641 456.631 86.6281C456.043 89.0921 455.749 91.9482 455.749 95.1962V98.1783C455.749 101.398 456.043 104.254 456.631 106.746C457.219 109.21 458.087 111.296 459.236 113.004C460.384 114.684 461.784 115.959 463.436 116.827C465.088 117.695 466.978 118.129 469.106 118.129C471.234 118.129 473.124 117.695 474.776 116.827C476.428 115.959 477.814 114.684 478.934 113.004C480.054 111.296 480.908 109.21 481.496 106.746C482.084 104.254 482.378 101.398 482.378 98.1783ZM510.224 62.7718V68.8618L509.006 85.6201H501.362L501.404 69.4919V62.7718H510.224ZM549.873 111.282C549.873 110.19 549.705 109.21 549.369 108.342C549.061 107.446 548.473 106.634 547.605 105.906C546.737 105.15 545.519 104.408 543.951 103.68C542.383 102.952 540.353 102.196 537.861 101.412C535.089 100.516 532.457 99.5083 529.965 98.3883C527.5 97.2682 525.316 95.9662 523.412 94.4822C521.536 92.9702 520.052 91.2202 518.96 89.2321C517.896 87.2441 517.364 84.9341 517.364 82.302C517.364 79.754 517.924 77.444 519.044 75.3719C520.164 73.2719 521.732 71.4799 523.748 69.9959C525.764 68.4838 528.144 67.3218 530.889 66.5098C533.661 65.6978 536.699 65.2918 540.003 65.2918C544.511 65.2918 548.445 66.1038 551.805 67.7278C555.165 69.3519 557.769 71.5779 559.617 74.4059C561.493 77.234 562.431 80.468 562.431 84.1081H549.915C549.915 82.316 549.537 80.748 548.781 79.404C548.053 78.032 546.933 76.954 545.421 76.1699C543.937 75.3859 542.061 74.9939 539.793 74.9939C537.609 74.9939 535.789 75.3299 534.333 76.0019C532.877 76.646 531.785 77.528 531.057 78.648C530.329 79.74 529.965 80.972 529.965 82.344C529.965 83.38 530.217 84.3181 530.721 85.1581C531.253 85.9981 532.037 86.7821 533.073 87.5101C534.109 88.2381 535.383 88.9241 536.895 89.5681C538.407 90.2121 540.157 90.8422 542.145 91.4582C545.477 92.4662 548.403 93.6002 550.923 94.8602C553.471 96.1202 555.599 97.5342 557.307 99.1023C559.015 100.67 560.303 102.448 561.171 104.436C562.039 106.424 562.473 108.678 562.473 111.198C562.473 113.858 561.955 116.239 560.919 118.339C559.883 120.439 558.385 122.217 556.425 123.673C554.465 125.129 552.127 126.235 549.411 126.991C546.695 127.747 543.657 128.125 540.297 128.125C537.273 128.125 534.291 127.733 531.351 126.949C528.41 126.137 525.736 124.919 523.328 123.295C520.948 121.671 519.044 119.599 517.616 117.079C516.188 114.558 515.474 111.576 515.474 108.132H528.116C528.116 110.036 528.41 111.646 528.998 112.962C529.587 114.278 530.413 115.342 531.477 116.155C532.569 116.967 533.857 117.555 535.341 117.919C536.853 118.283 538.505 118.465 540.297 118.465C542.481 118.465 544.273 118.157 545.673 117.541C547.101 116.925 548.151 116.071 548.823 114.978C549.523 113.886 549.873 112.654 549.873 111.282ZM605.062 66.1318V127.285H592.461V66.1318H605.062ZM629.422 92.2562V102.084H601.618V92.2562H629.422ZM632.362 66.1318V76.0019H601.618V66.1318H632.362ZM689.903 95.2802V98.1783C689.903 102.826 689.273 106.998 688.013 110.694C686.753 114.39 684.975 117.541 682.679 120.145C680.383 122.721 677.639 124.695 674.447 126.067C671.282 127.439 667.768 128.125 663.904 128.125C660.068 128.125 656.554 127.439 653.362 126.067C650.198 124.695 647.454 122.721 645.13 120.145C642.806 117.541 641 114.39 639.712 110.694C638.452 106.998 637.822 102.826 637.822 98.1783V95.2802C637.822 90.6042 638.452 86.4321 639.712 82.764C640.972 79.068 642.75 75.9179 645.046 73.3139C647.37 70.7099 650.114 68.7218 653.278 67.3498C656.47 65.9778 659.984 65.2918 663.82 65.2918C667.684 65.2918 671.198 65.9778 674.363 67.3498C677.555 68.7218 680.299 70.7099 682.595 73.3139C684.919 75.9179 686.711 79.068 687.971 82.764C689.259 86.4321 689.903 90.6042 689.903 95.2802ZM677.177 98.1783V95.1962C677.177 91.9482 676.883 89.0921 676.295 86.6281C675.707 84.1641 674.839 82.092 673.691 80.412C672.543 78.732 671.142 77.472 669.49 76.632C667.838 75.7639 665.948 75.3299 663.82 75.3299C661.692 75.3299 659.802 75.7639 658.15 76.632C656.526 77.472 655.14 78.732 653.992 80.412C652.872 82.092 652.018 84.1641 651.43 86.6281C650.842 89.0921 650.548 91.9482 650.548 95.1962V98.1783C650.548 101.398 650.842 104.254 651.43 106.746C652.018 109.21 652.886 111.296 654.034 113.004C655.182 114.684 656.582 115.959 658.234 116.827C659.886 117.695 661.776 118.129 663.904 118.129C666.032 118.129 667.922 117.695 669.574 116.827C671.226 115.959 672.613 114.684 673.733 113.004C674.853 111.296 675.707 109.21 676.295 106.746C676.883 104.254 677.177 101.398 677.177 98.1783ZM698.975 66.1318H721.781C726.457 66.1318 730.475 66.8318 733.835 68.2318C737.223 69.6319 739.827 71.7039 741.647 74.4479C743.467 77.192 744.377 80.566 744.377 84.5701C744.377 87.8461 743.817 90.6602 742.697 93.0122C741.605 95.3362 740.051 97.2822 738.035 98.8503C736.047 100.39 733.709 101.622 731.021 102.546L727.031 104.646H707.207L707.123 94.8182H721.865C724.077 94.8182 725.911 94.4262 727.367 93.6422C728.823 92.8582 729.915 91.7662 730.643 90.3661C731.399 88.9661 731.777 87.3421 731.777 85.4941C731.777 83.5341 731.413 81.84 730.685 80.412C729.957 78.984 728.851 77.892 727.367 77.136C725.883 76.38 724.021 76.0019 721.781 76.0019H711.575V127.285H698.975V66.1318ZM733.163 127.285L719.219 100.026L732.533 99.9423L746.646 126.697V127.285H733.163ZM778.902 66.1318V127.285H766.344V66.1318H778.902ZM797.718 66.1318V76.0019H747.822V66.1318H797.718Z" fill="white"/>
</svg>
