<svg width="160" height="34" viewBox="0 0 160 34" fill="none" xmlns="http://www.w3.org/2000/svg">
<path d="M158.289 21.6688C158.595 21.6688 158.888 21.6433 159.169 21.5923C159.449 21.5285 159.71 21.4584 159.953 21.3819V23.1796C159.698 23.2944 159.366 23.39 158.958 23.4665C158.55 23.5558 158.123 23.6004 157.677 23.6004C157.09 23.6004 156.555 23.5048 156.07 23.3135C155.599 23.1095 155.216 22.7653 154.923 22.2808C154.642 21.7963 154.502 21.1205 154.502 20.2535V14.8603H153.106V13.8084L154.636 12.9669L155.401 10.7675H156.912V13.0434H159.857V14.8603H156.912V20.2344C156.912 20.7189 157.039 21.0823 157.294 21.3245C157.549 21.554 157.881 21.6688 158.289 21.6688Z" fill="white"/>
<path d="M151.316 12.852C151.507 12.852 151.711 12.8647 151.928 12.8902C152.157 12.903 152.342 12.9285 152.482 12.9667L152.234 15.2235C152.081 15.198 151.902 15.1725 151.698 15.147C151.507 15.1215 151.297 15.1087 151.067 15.1087C150.736 15.1087 150.411 15.1661 150.092 15.2809C149.773 15.3956 149.48 15.5741 149.212 15.8164C148.944 16.0586 148.734 16.3646 148.581 16.7344C148.428 17.0914 148.351 17.5249 148.351 18.0349V23.409H145.923V13.0432H147.797L148.141 14.841H148.256C148.46 14.4712 148.715 14.1334 149.021 13.8274C149.327 13.5214 149.671 13.2855 150.054 13.1197C150.449 12.9412 150.87 12.852 151.316 12.852Z" fill="white"/>
<path d="M143.471 18.207C143.471 19.0612 143.356 19.8262 143.127 20.502C142.897 21.165 142.566 21.7324 142.132 22.2041C141.712 22.6631 141.189 23.0137 140.564 23.256C139.952 23.4855 139.264 23.6002 138.499 23.6002C137.785 23.6002 137.128 23.4855 136.529 23.256C135.929 23.0137 135.413 22.6631 134.98 22.2041C134.546 21.7324 134.202 21.165 133.947 20.502C133.705 19.8262 133.583 19.0612 133.583 18.207C133.583 17.0467 133.781 16.0714 134.176 15.2809C134.584 14.4904 135.158 13.8911 135.898 13.4831C136.637 13.0624 137.523 12.852 138.556 12.852C139.525 12.852 140.373 13.0624 141.1 13.4831C141.839 13.8911 142.419 14.4904 142.84 15.2809C143.261 16.0714 143.471 17.0467 143.471 18.207ZM136.07 18.207C136.07 18.921 136.153 19.5457 136.318 20.0812C136.497 20.604 136.765 21.0056 137.122 21.2861C137.491 21.5666 137.963 21.7069 138.537 21.7069C139.111 21.7069 139.576 21.5666 139.933 21.2861C140.303 21.0056 140.571 20.604 140.736 20.0812C140.902 19.5457 140.985 18.921 140.985 18.207C140.985 17.4675 140.896 16.8427 140.717 16.3327C140.551 15.8227 140.29 15.4339 139.933 15.1661C139.576 14.8856 139.104 14.7454 138.518 14.7454C137.663 14.7454 137.039 15.0514 136.643 15.6634C136.261 16.2626 136.07 17.1105 136.07 18.207Z" fill="white"/>
<path d="M126.525 23.409H124.115V9.75372H131.861V11.8001H126.525V15.8163H131.497V17.8627H126.525V23.409Z" fill="white"/>
<path d="M116.543 20.4255C116.543 21.0885 116.383 21.6559 116.065 22.1276C115.746 22.5994 115.274 22.9627 114.649 23.2177C114.025 23.4727 113.247 23.6002 112.316 23.6002C111.589 23.6002 110.952 23.5492 110.404 23.4472C109.855 23.3452 109.345 23.1859 108.874 22.9691V20.9036C109.384 21.1459 109.945 21.3499 110.557 21.5156C111.181 21.6686 111.755 21.7451 112.278 21.7451C112.966 21.7451 113.464 21.6431 113.77 21.4391C114.076 21.2351 114.229 20.961 114.229 20.6167C114.229 20.4 114.158 20.2087 114.018 20.043C113.891 19.8645 113.648 19.686 113.291 19.5075C112.947 19.329 112.456 19.1122 111.819 18.8572C111.181 18.6022 110.639 18.3472 110.193 18.0922C109.76 17.8245 109.428 17.5057 109.199 17.136C108.969 16.7535 108.854 16.2817 108.854 15.7207C108.854 14.79 109.224 14.0824 109.964 13.5979C110.703 13.1006 111.679 12.852 112.89 12.852C113.54 12.852 114.146 12.9157 114.707 13.0432C115.28 13.1707 115.841 13.362 116.39 13.617L115.663 15.3382C115.191 15.1342 114.707 14.9685 114.209 14.841C113.712 14.7007 113.253 14.6306 112.832 14.6306C112.297 14.6306 111.883 14.7135 111.589 14.8792C111.309 15.045 111.169 15.2745 111.169 15.5677C111.169 15.7972 111.239 15.9949 111.379 16.1606C111.519 16.3136 111.768 16.473 112.125 16.6387C112.482 16.8045 112.979 17.0085 113.617 17.2507C114.241 17.493 114.771 17.748 115.204 18.0157C115.65 18.2835 115.982 18.6086 116.198 18.9911C116.428 19.3609 116.543 19.839 116.543 20.4255Z" fill="white"/>
<path d="M107.33 9.75372L106.947 14.688H105.322L104.939 9.75372H107.33Z" fill="white"/>
<path d="M102.961 18.207C102.961 19.0612 102.846 19.8262 102.617 20.502C102.387 21.165 102.056 21.7324 101.622 22.2041C101.202 22.6631 100.679 23.0137 100.054 23.256C99.4422 23.4855 98.7537 23.6002 97.9887 23.6002C97.2747 23.6002 96.6181 23.4855 96.0189 23.256C95.4196 23.0137 94.9032 22.6631 94.4697 22.2041C94.0362 21.7324 93.692 21.165 93.437 20.502C93.1947 19.8262 93.0736 19.0612 93.0736 18.207C93.0736 17.0467 93.2712 16.0714 93.6665 15.2809C94.0745 14.4904 94.6482 13.8911 95.3877 13.4831C96.1272 13.0624 97.0134 12.852 98.0461 12.852C99.0151 12.852 99.863 13.0624 100.59 13.4831C101.329 13.8911 101.909 14.4904 102.33 15.2809C102.751 16.0714 102.961 17.0467 102.961 18.207ZM95.5599 18.207C95.5599 18.921 95.6427 19.5457 95.8085 20.0812C95.987 20.604 96.2547 21.0056 96.6117 21.2861C96.9815 21.5666 97.4532 21.7069 98.027 21.7069C98.6007 21.7069 99.0661 21.5666 99.4231 21.2861C99.7929 21.0056 100.061 20.604 100.226 20.0812C100.392 19.5457 100.475 18.921 100.475 18.207C100.475 17.4675 100.386 16.8427 100.207 16.3327C100.041 15.8227 99.7801 15.4339 99.4231 15.1661C99.0661 14.8856 98.5944 14.7454 98.0079 14.7454C97.1536 14.7454 96.5289 15.0514 96.1336 15.6634C95.7511 16.2626 95.5599 17.1105 95.5599 18.207Z" fill="white"/>
<path d="M89.9131 21.6688C90.2191 21.6688 90.5124 21.6433 90.7929 21.5923C91.0734 21.5285 91.3347 21.4584 91.577 21.3819V23.1796C91.322 23.2944 90.9905 23.39 90.5825 23.4665C90.1745 23.5558 89.7473 23.6004 89.3011 23.6004C88.7146 23.6004 88.1791 23.5048 87.6946 23.3135C87.2229 23.1095 86.8403 22.7653 86.5471 22.2808C86.2666 21.7963 86.1263 21.1205 86.1263 20.2535V14.8603H84.7302V13.8084L86.2602 12.9669L87.0252 10.7675H88.5361V13.0434H91.4814V14.8603H88.5361V20.2344C88.5361 20.7189 88.6636 21.0823 88.9186 21.3245C89.1736 21.554 89.5051 21.6688 89.9131 21.6688Z" fill="white"/>
<path d="M79.3374 12.852C80.5742 12.852 81.5559 13.3046 82.2827 14.2099C83.0094 15.1024 83.3728 16.4347 83.3728 18.207C83.3728 19.38 83.2007 20.3681 82.8564 21.1714C82.5122 21.9746 82.0341 22.5802 81.4221 22.9882C80.8101 23.3962 80.0961 23.6002 79.2801 23.6002C78.7701 23.6002 78.3238 23.5365 77.9413 23.409C77.5588 23.2687 77.2337 23.0966 76.9659 22.8926C76.6982 22.6759 76.4751 22.4464 76.2966 22.2041H76.1818C76.2073 22.4336 76.2328 22.7077 76.2583 23.0265C76.2838 23.3325 76.2966 23.6321 76.2966 23.9254V27.999H73.8677V13.0432H75.8376L76.1818 14.4011H76.2966C76.4878 14.1206 76.7173 13.8656 76.9851 13.6361C77.2656 13.3939 77.5971 13.2026 77.9796 13.0624C78.3621 12.9221 78.8147 12.852 79.3374 12.852ZM78.6298 14.8027C78.0688 14.8027 77.6162 14.9175 77.2719 15.147C76.9404 15.3765 76.6982 15.7207 76.5452 16.1797C76.3922 16.626 76.3093 17.1934 76.2966 17.8819V18.1879C76.2966 18.9274 76.3667 19.5521 76.5069 20.0621C76.6472 20.5721 76.8894 20.961 77.2337 21.2287C77.5907 21.4837 78.0688 21.6112 78.6681 21.6112C79.1653 21.6112 79.5797 21.471 79.9112 21.1905C80.2427 20.91 80.4849 20.5147 80.6379 20.0047C80.8037 19.4947 80.8866 18.8827 80.8866 18.1687C80.8866 17.085 80.7017 16.2562 80.3319 15.6825C79.9622 15.096 79.3948 14.8027 78.6298 14.8027Z" fill="white"/>
<path d="M61.8983 13.0431H64.4802L66.5457 18.9527C66.6349 19.195 66.7178 19.4436 66.7943 19.6986C66.8708 19.9408 66.9346 20.1831 66.9856 20.4253C67.0493 20.6676 67.1003 20.8971 67.1386 21.1138H67.2151C67.2661 20.8206 67.3489 20.4827 67.4637 20.1002C67.5912 19.705 67.7187 19.3225 67.8462 18.9527L69.8352 13.0431H72.3788L68.0566 24.5372C67.7761 25.264 67.4509 25.8823 67.0812 26.3923C66.7242 26.9151 66.2843 27.3103 65.7616 27.5781C65.2388 27.8586 64.5949 27.9988 63.8299 27.9988C63.5112 27.9988 63.2307 27.9797 62.9884 27.9415C62.7589 27.916 62.5613 27.8841 62.3956 27.8458V25.9333C62.5358 25.9588 62.7016 25.9843 62.8928 26.0098C63.0968 26.0353 63.3072 26.0481 63.5239 26.0481C63.9192 26.0481 64.2507 25.9652 64.5184 25.7995C64.7989 25.6465 65.0348 25.4361 65.2261 25.1683C65.4173 24.9006 65.5767 24.5946 65.7042 24.2503L66.0484 23.3706L61.8983 13.0431Z" fill="white"/>
<path d="M60.4908 12.852C60.682 12.852 60.886 12.8647 61.1028 12.8902C61.3323 12.903 61.5172 12.9285 61.6574 12.9667L61.4088 15.2235C61.2558 15.198 61.0773 15.1725 60.8733 15.147C60.682 15.1215 60.4717 15.1087 60.2422 15.1087C59.9107 15.1087 59.5855 15.1661 59.2668 15.2809C58.948 15.3956 58.6548 15.5741 58.387 15.8164C58.1193 16.0586 57.9089 16.3646 57.7559 16.7344C57.6029 17.0914 57.5264 17.5249 57.5264 18.0349V23.409H55.0975V13.0432H56.9718L57.316 14.841H57.4308C57.6348 14.4712 57.8898 14.1334 58.1958 13.8274C58.5018 13.5214 58.846 13.2855 59.2285 13.1197C59.6238 12.9412 60.0445 12.852 60.4908 12.852Z" fill="white"/>
<path d="M49.0599 11.6471C48.4479 11.6471 47.8933 11.7619 47.396 11.9914C46.8988 12.2081 46.478 12.5333 46.1338 12.9668C45.7895 13.4003 45.5218 13.923 45.3305 14.535C45.152 15.147 45.0628 15.8355 45.0628 16.6005C45.0628 17.6205 45.2094 18.5003 45.5026 19.2398C45.8086 19.9793 46.2613 20.5466 46.8605 20.9419C47.4725 21.3244 48.2311 21.5156 49.1364 21.5156C49.7356 21.5156 50.303 21.4519 50.8385 21.3244C51.3868 21.1969 51.9286 21.0439 52.4641 20.8654V22.9691C51.9286 23.1859 51.3676 23.3453 50.7811 23.4472C50.2074 23.5492 49.5508 23.6003 48.8113 23.6003C47.396 23.6003 46.2166 23.3134 45.2731 22.7396C44.3424 22.1531 43.6475 21.3371 43.1885 20.2916C42.7295 19.2334 42.5 17.9966 42.5 16.5814C42.5 15.5486 42.6403 14.6051 42.9208 13.7509C43.214 12.8966 43.6411 12.1571 44.2021 11.5324C44.7631 10.8949 45.4516 10.4104 46.2676 10.0789C47.0836 9.73462 48.0208 9.5625 49.079 9.5625C49.7675 9.5625 50.4496 9.639 51.1254 9.792C51.8139 9.93225 52.445 10.1426 53.0188 10.4231L52.1773 12.4313C51.7183 12.2145 51.2338 12.0296 50.7238 11.8766C50.2138 11.7236 49.6591 11.6471 49.0599 11.6471Z" fill="white"/>
<rect width="34" height="34" rx="10" fill="#25C866"/>
<path d="M19.1309 7.5C20.0167 7.5 20.8941 7.60254 21.7627 7.80566C22.1836 7.89463 22.59 8.00473 22.9805 8.13672C23.9823 8.47541 24.3449 9.58502 23.9844 10.4775C23.5677 11.5087 22.3937 11.9167 21.4141 11.5762C21.2827 11.5305 21.1492 11.4862 21.0146 11.4443C20.4381 11.2649 19.8035 11.1729 19.1074 11.1729C18.4175 11.1729 17.8066 11.3068 17.2666 11.5654L17.2568 11.5703C16.7205 11.8129 16.2649 12.1761 15.8877 12.6689C15.5062 13.1674 15.2002 13.7781 14.9785 14.5107L14.9795 14.5117C14.7736 15.2444 14.667 16.0805 14.667 17.0244C14.667 18.285 14.842 19.3474 15.1758 20.2236L15.3125 20.5391C15.6489 21.2488 16.1029 21.7881 16.668 22.1758C17.3248 22.5996 18.1601 22.8271 19.2021 22.8271C19.9056 22.8271 20.5663 22.7496 21.1855 22.5967L21.1885 22.5957C21.2718 22.5756 21.3554 22.5553 21.4385 22.5342C22.5934 22.2408 23.8145 23.072 23.8145 24.3242C23.8144 25.04 23.3856 25.7336 22.6533 25.9668C22.2216 26.1043 21.7783 26.2129 21.3242 26.2949L21.3252 26.2959C20.5795 26.4334 19.7365 26.5 18.7998 26.5C16.9815 26.5 15.4249 26.1173 14.1602 25.3193L14.1533 25.3154C12.9149 24.5058 11.9942 23.3785 11.3906 21.9521L11.3896 21.9502C10.7917 20.5197 10.5 18.8659 10.5 17C10.5 15.6323 10.6787 14.3707 11.043 13.2197L11.0449 13.2139C11.3785 12.2057 11.8481 11.3078 12.4561 10.5264L12.7256 10.1982C13.4701 9.32174 14.3845 8.65534 15.4619 8.20117C16.5428 7.7292 17.7693 7.50001 19.1309 7.5Z" fill="white" stroke="white"/>
</svg>
