<svg width="26" height="34" viewBox="0 0 26 34" fill="none" xmlns="http://www.w3.org/2000/svg">
<path d="M23.8994 13.6904V33.959H13.2842V10.3125L23.8994 13.6904ZM8.4209 16.1787C9.42908 16.1384 10.0225 16.95 10.0225 17.4834V23.2314L6.58301 24.417V18.0752C6.58332 17.6599 7.05763 16.2334 8.4209 16.1787ZM17.1982 16.1797C16.1901 16.1395 15.5967 16.95 15.5967 17.4834V23.2324L19.0371 24.417V18.0762C19.0371 17.6613 18.5622 16.2342 17.1982 16.1797ZM12.8691 10.3711L1.66016 14.1045L0 12.8008L12.8691 8.59375V10.3711ZM17.9697 3.02246V7.82324L20.9941 9.00781V4.97852L25.501 7.82324V12.5049L13.2842 8.41602V0L17.9697 3.02246ZM7.53223 6.16309V8.23828L5.27832 9.00781V5.21582L7.53223 6.16309Z" fill="#18C55D"/>
</svg>
